<?xml version="1.0" encoding="UTF-8"?>
<svg version="1.1" xmlns="http://www.w3.org/2000/svg" width="220" height="75">
<path d="M0 0 C2.25 1.75 2.25 1.75 4 4 C4.25 6.75 4.25 6.75 4 9 C6.64 8.67 9.28 8.34 12 8 C12.1546875 8.928125 12.1546875 8.928125 12.3125 9.875 C12.87525373 12.36526484 12.87525373 12.36526484 16 14 C15.25162755 18.93925817 13.47276743 23.42529591 11.6875 28.0625 C11.39166016 28.86494141 11.09582031 29.66738281 10.79101562 30.49414062 C10.34338867 31.65913086 10.34338867 31.65913086 9.88671875 32.84765625 C9.62076904 33.54898682 9.35481934 34.25031738 9.08081055 34.97290039 C5.51685847 41.65722252 -1.45687583 43.84571788 -8 46.8125 C-9.093125 47.32748047 -10.18625 47.84246094 -11.3125 48.37304688 C-12.364375 48.85451172 -13.41625 49.33597656 -14.5 49.83203125 C-15.4590625 50.27264893 -16.418125 50.7132666 -17.40625 51.16723633 C-20.15407279 52.04946746 -21.34656471 52.01811499 -24 51 C-26.01787415 43.88897624 -26.88022648 36.77454256 -27.6875 29.4375 C-27.82994141 28.24447266 -27.97238281 27.05144531 -28.11914062 25.82226562 C-28.48483351 22.54922329 -28.77030294 19.2851014 -29 16 C-29.11021484 14.89785156 -29.11021484 14.89785156 -29.22265625 13.7734375 C-29.23046875 11.96484375 -29.23046875 11.96484375 -28 9 C-24.75330098 6.81277091 -21.27913191 5.4904914 -17.625 4.125 C-16.65304688 3.73570313 -15.68109375 3.34640625 -14.6796875 2.9453125 C-3.65544215 -1.44002267 -3.65544215 -1.44002267 0 0 Z " fill="#73C8F6" transform="translate(34,12)"/>
<path d="M0 0 C2.375 1.25 2.375 1.25 4 3 C4 4.32 4 5.64 4 7 C2.0625 7.5625 2.0625 7.5625 0 8 C-0.33 7.67 -0.66 7.34 -1 7 C-2.66617115 6.95936168 -4.33388095 6.957279 -6 7 C-6 9.64 -6 12.28 -6 15 C-3.52733235 14.65555119 -3.52733235 14.65555119 -1 14 C-0.67 13.34 -0.34 12.68 0 12 C0.928125 12.350625 1.85625 12.70125 2.8125 13.0625 C5.9802953 14.32382628 5.9802953 14.32382628 9 13 C9.66 13 10.32 13 11 13 C10.175 12.62875 9.35 12.2575 8.5 11.875 C6 10 6 10 5.4375 7.0625 C6 4 6 4 7.5625 1.625 C10.87969422 -0.58646281 13.08945759 -0.42660463 17 0 C17.99 0.66 18.98 1.32 20 2 C19.67 3.32 19.34 4.64 19 6 C17.35 6.33 15.7 6.66 14 7 C14.78375 7.28875 15.5675 7.5775 16.375 7.875 C19 9 19 9 21 11 C21.4375 13.875 21.4375 13.875 21 17 C19 19.4375 19 19.4375 16 21 C12.26456549 21.1701287 9.06274659 20.60728377 5.8125 18.75 C5.214375 18.5025 4.61625 18.255 4 18 C3.236875 18.474375 2.47375 18.94875 1.6875 19.4375 C-1 21 -1 21 -4.5625 20.9375 C-8.27732142 19.92436688 -9.64940539 18.983447 -12 16 C-13.5547669 12.89046621 -13.28644437 10.43733239 -13 7 C-9.68251485 0.82261386 -6.94365228 -0.56682876 0 0 Z " fill="#FBFBFB" transform="translate(162,29)"/>
<path d="M0 0 C0 1.32 0 2.64 0 4 C-15.74487472 10.33485194 -15.74487472 10.33485194 -23 13 C-23.25287193 19.06892629 -22.69832609 24.16200408 -21 30 C-20.731875 29.40832031 -20.46375 28.81664063 -20.1875 28.20703125 C-17.21087836 22.20483037 -14.27411046 18.57011754 -8 16 C-4.68919549 15.10263501 -1.39703586 14.46639632 2 14 C0.4040819 17.1918362 -2.75390453 17.64590889 -5.96875 18.90234375 C-8.34198878 19.88550101 -8.34198878 19.88550101 -9 23 C-9.94875 23.4125 -10.8975 23.825 -11.875 24.25 C-16.31440065 26.73606437 -17.23452763 30.40290535 -18.61035156 35.07080078 C-19.16873646 37.18650257 -19.68666251 39.3074791 -20.1875 41.4375 C-20.45336914 42.53481445 -20.45336914 42.53481445 -20.72460938 43.65429688 C-21.15520891 45.43488415 -21.57839216 47.21726226 -22 49 C-20.91589844 48.51917969 -19.83179688 48.03835937 -18.71484375 47.54296875 C-15.51078029 46.12190374 -12.49431266 45.42613569 -9 45 C-9 45.66 -9 46.32 -9 47 C-10.74294678 47.86846831 -12.49468663 48.71930627 -14.25 49.5625 C-15.22453125 50.03816406 -16.1990625 50.51382813 -17.203125 51.00390625 C-20.21264978 52.07573421 -21.0706834 51.90238311 -24 51 C-26.01787415 43.88897624 -26.88022648 36.77454256 -27.6875 29.4375 C-27.82994141 28.24447266 -27.97238281 27.05144531 -28.11914062 25.82226562 C-28.48483351 22.54922329 -28.77030294 19.2851014 -29 16 C-29.11021484 14.89785156 -29.11021484 14.89785156 -29.22265625 13.7734375 C-29.23046875 11.96484375 -29.23046875 11.96484375 -28 9 C-24.75330098 6.81277091 -21.27913191 5.4904914 -17.625 4.125 C-16.65304688 3.73570313 -15.68109375 3.34640625 -14.6796875 2.9453125 C-4.08696319 -1.26836789 -4.08696319 -1.26836789 0 0 Z " fill="#10558F" transform="translate(34,12)"/>
<path d="M0 0 C7.89737396 0.04021066 7.89737396 0.04021066 11.125 2.6875 C14.84709304 7.26035717 14.85420134 11.70648244 14.3125 17.375 C12.4149735 22.59319788 12.4149735 22.59319788 9.6875 24.52734375 C6.32775609 25.72646288 3.07869517 25.58640933 -0.4375 25.5 C-1.13488281 25.49097656 -1.83226563 25.48195313 -2.55078125 25.47265625 C-4.26316958 25.44919888 -5.97538004 25.41333104 -7.6875 25.375 C-7.71636984 21.39584841 -7.73425406 17.41672347 -7.75 13.4375 C-7.75837891 12.30119141 -7.76675781 11.16488281 -7.77539062 9.99414062 C-7.77861328 8.91455078 -7.78183594 7.83496094 -7.78515625 6.72265625 C-7.79039307 5.72242432 -7.79562988 4.72219238 -7.80102539 3.69165039 C-7.5680027 -1.06351596 -4.04859824 0.10999326 0 0 Z M-1.6875 5.375 C-1.6875 10.325 -1.6875 15.275 -1.6875 20.375 C3.82035479 20.763057 3.82035479 20.763057 6.6875 19.375 C8.88240068 16.67358378 8.71269435 14.7052617 8.6484375 11.3125 C8.39163353 9.05560065 8.39163353 9.05560065 6.3125 6.375 C4.34888136 5.79751197 4.34888136 5.79751197 2.1875 5.6875 C0.90875 5.584375 -0.37 5.48125 -1.6875 5.375 Z " fill="#FCFCFC" transform="translate(110.6875,23.625)"/>
<path d="M0 0 C2.125 1.75 2.125 1.75 3.0625 3.8125 C3.083125 4.451875 3.10375 5.09125 3.125 5.75 C2.465 6.41 1.805 7.07 1.125 7.75 C-2.41071429 7.21428571 -2.41071429 7.21428571 -3.875 5.75 C-6.21444736 6.03730055 -8.5489143 6.36936779 -10.875 6.75 C-12.11777982 12.22220467 -12.11777982 12.22220467 -10.4375 17.25 C-9.921875 17.745 -9.40625 18.24 -8.875 18.75 C-4.5962019 18.33413646 -4.5962019 18.33413646 -1 16.1875 C-0.62875 15.713125 -0.2575 15.23875 0.125 14.75 C1.115 15.41 2.105 16.07 3.125 16.75 C2.78160684 19.29110939 2.40148437 21.29461398 1.0625 23.5 C-2.03460227 25.4981305 -5.2675478 25.86614903 -8.875 25.75 C-13.01271793 24.26666716 -15.84336155 22.70634856 -17.875 18.75 C-19.34394613 12.55944131 -19.03120464 7.39673703 -15.875 1.75 C-10.92314639 -1.96389021 -5.6755435 -2.46762761 0 0 Z " fill="#F9F9F9" transform="translate(75.875,25.25)"/>
<path d="M0 0 C2.09375 0.5234375 2.09375 0.5234375 4.09375 2.0234375 C6.03826189 6.88471723 6.8989591 11.53160447 4.90625 16.4609375 C2.9124589 18.72973426 2.01031796 19.73517589 -0.90625 20.5234375 C-5.21821219 20.67457844 -8.03347733 20.24347495 -11.40625 17.4609375 C-13.35122937 13.65201957 -13.61972249 10.71933523 -12.90625 6.5234375 C-9.95998732 0.06971925 -6.62347436 -0.96771541 0 0 Z M-6.90625 6.5234375 C-7.07291667 10.0234375 -7.07291667 10.0234375 -6.90625 13.5234375 C-5.83979885 14.81977371 -5.83979885 14.81977371 -3.34375 14.5859375 C-2.539375 14.5653125 -1.735 14.5446875 -0.90625 14.5234375 C0.45998674 11.79096402 0.222176 9.54144848 0.09375 6.5234375 C-0.9658377 5.24021203 -0.9658377 5.24021203 -3.40625 5.3984375 C-5.8466623 5.24021203 -5.8466623 5.24021203 -6.90625 6.5234375 Z " fill="#FBFBFB" transform="translate(140.90625,29.4765625)"/>
<path d="M0 0 C2.875 1.4375 2.875 1.4375 5 4 C6.55070899 8.7790856 6.50639524 11.98720952 4.25 16.5 C1.38543431 19.68285077 -0.21687753 19.92880705 -4.4375 20.3125 C-8 20 -8 20 -10.375 18.125 C-12.96309468 14.7405685 -13.33199966 12.33246243 -13.29296875 8.0390625 C-12.83745033 4.86865433 -11.24684343 3.1807598 -9 1 C-5.89951072 -0.55024464 -3.42105782 -0.28992015 0 0 Z M-7 6 C-7 8.64 -7 11.28 -7 14 C-4.60280568 14.67958603 -4.60280568 14.67958603 -2 15 C0.41121859 13.04366025 0.41121859 13.04366025 0.125 9.375 C0.08375 8.26125 0.0425 7.1475 0 6 C-3.58327753 4.99782936 -3.58327753 4.99782936 -7 6 Z " fill="#FBFBFB" transform="translate(94,30)"/>
<path d="M0 0 C1.32 0.66 2.64 1.32 4 2 C4 4.31 4 6.62 4 9 C2.90300781 9.25394531 1.80601563 9.50789063 0.67578125 9.76953125 C-0.77875214 10.11674245 -2.23317342 10.46442358 -3.6875 10.8125 C-4.40873047 10.97814453 -5.12996094 11.14378906 -5.87304688 11.31445312 C-10.1199536 12.34224334 -13.24017337 13.7229219 -17 16 C-20.8125 15.6875 -20.8125 15.6875 -24 15 C-23.77294922 12.63989258 -23.77294922 12.63989258 -23 10 C-21.09814453 8.69799805 -21.09814453 8.69799805 -18.6328125 7.76171875 C-17.74722656 7.41689453 -16.86164062 7.07207031 -15.94921875 6.71679688 C-15.01722656 6.37712891 -14.08523437 6.03746094 -13.125 5.6875 C-12.20074219 5.32849609 -11.27648437 4.96949219 -10.32421875 4.59960938 C-3.5008631 2 -3.5008631 2 0 2 C0 1.34 0 0.68 0 0 Z " fill="#D6EDFA" transform="translate(34,14)"/>
<path d="M0 0 C0.6875 1.8125 0.6875 1.8125 1 4 C-0.4375 5.75 -0.4375 5.75 -2 7 C-2.495 6.505 -2.495 6.505 -3 6 C-11.67203853 5.9107815 -20.52115506 8.64988885 -28 13 C-29.12085312 15.3430809 -29.12085312 15.3430809 -30 18 C-30.97236487 19.6829392 -31.96564444 21.35443434 -33 23 C-35.18994248 19.71508627 -35.35277339 18.16904361 -35.625 14.3125 C-35.69976562 13.31863281 -35.77453125 12.32476562 -35.8515625 11.30078125 C-35.90054688 10.54152344 -35.94953125 9.78226563 -36 9 C-35.01 9.0825 -34.02 9.165 -33 9.25 C-29.89323075 9.26237757 -28.05648191 8.66542578 -25.375 7.125 C-19.98020592 4.11841516 -14.05116902 3.70105007 -8 3 C-8 2.34 -8 1.68 -8 1 C-5.07175348 0.02391783 -3.04386724 -0.08226668 0 0 Z " fill="#45D8B8" transform="translate(46,20)"/>
<path d="M0 0 C-0.20703125 1.828125 -0.20703125 1.828125 -1 4 C-6.04149515 7.60784963 -10.82397027 9.2872572 -17 9 C-18.68756133 9.96432076 -20.35666496 10.96210419 -22 12 C-23.32 12 -24.64 12 -26 12 C-25.67 9.03 -25.34 6.06 -25 3 C-24.34 3.66 -23.68 4.32 -23 5 C-19.91652174 5.16681109 -19.91652174 5.16681109 -17 5 C-17 4.34 -17 3.68 -17 3 C-5.47835991 -1.77676538 -5.47835991 -1.77676538 0 0 Z " fill="#4BAFEE" transform="translate(38,49)"/>
<path d="M0 0 C0 1.32 0 2.64 0 4 C-1.64276198 4.66095502 -3.28562342 5.32166381 -4.92895508 5.98120117 C-6.31200936 6.53634674 -7.69465845 7.0925028 -9.0769043 7.6496582 C-12.63201961 9.07684507 -16.19034659 10.43755467 -19.8125 11.6875 C-23.23697366 12.75076908 -23.23697366 12.75076908 -25 16 C-25.66 16 -26.32 16 -27 16 C-27 13.69 -27 11.38 -27 9 C-5.77448893 -2.25958262 -5.77448893 -2.25958262 0 0 Z " fill="#44ADD8" transform="translate(34,12)"/>
<path d="M0 0 C-0.33 2.31 -0.66 4.62 -1 7 C-6.445 6.505 -6.445 6.505 -12 6 C-12.33 7.32 -12.66 8.64 -13 10 C-13.99 11.485 -13.99 11.485 -15 13 C-15.66 13 -16.32 13 -17 13 C-17 12.01 -17 11.02 -17 10 C-18.98 10.99 -18.98 10.99 -21 12 C-19.74155722 8.11980141 -18.57583797 6.0588158 -15 4 C-14.01 4 -13.02 4 -12 4 C-11.67 3.01 -11.34 2.02 -11 1 C-7.27569643 0.30710631 -3.78916254 -0.11144596 0 0 Z " fill="#6BC1E6" transform="translate(37,31)"/>
<path d="M0 0 C1.65 0.33 3.3 0.66 5 1 C5 2.32 5 3.64 5 5 C5.72445313 4.7834375 6.44890625 4.566875 7.1953125 4.34375 C12.27034151 2.88214165 16.67319101 1.72683031 22 2 C22.66 1.67 23.32 1.34 24 1 C24.33 2.98 24.66 4.96 25 7 C24.01 7.33 23.02 7.66 22 8 C22.33 6.68 22.66 5.36 23 4 C21.58249437 4.11509661 20.16598831 4.24253658 18.75 4.375 C17.96109375 4.44460937 17.1721875 4.51421875 16.359375 4.5859375 C13.97917099 4.88541588 13.97917099 4.88541588 11.953125 6.0390625 C10 7 10 7 6 7 C6 7.66 6 8.32 6 9 C3.69 9.33 1.38 9.66 -1 10 C-1.125 3.375 -1.125 3.375 0 0 Z " fill="#60BBEF" transform="translate(15,45)"/>
<path d="M0 0 C0 0.66 0 1.32 0 2 C-2.5 3.625 -2.5 3.625 -5 5 C-4.29875 4.67 -3.5975 4.34 -2.875 4 C0.26003116 2.90955438 2.70563182 2.84677357 6 3 C6 2.34 6 1.68 6 1 C9.63 1 13.26 1 17 1 C14.52984666 3.47015334 13.28583597 3.40945414 9.875 3.875 C6.05248843 4.48879755 3.11165882 5.26937703 -0.25 7.1875 C-4.22591679 9.41368482 -6.63617588 9.09095603 -11 8 C-11 5.6875 -11 5.6875 -10 3 C-6.90959651 1.26122353 -3.56623085 0 0 0 Z " fill="#AEEFEF" transform="translate(21,21)"/>
<path d="M0 0 C0.33 0 0.66 0 1 0 C1.12375 0.969375 1.2475 1.93875 1.375 2.9375 C1.684375 4.4534375 1.684375 4.4534375 2 6 C2.66 6.33 3.32 6.66 4 7 C5.45866945 12.5429439 5.09106925 18.31323109 5 24 C3.68 23.67 2.36 23.34 1 23 C0.63400603 20.4803886 0.28199149 17.96006672 -0.0625 15.4375 C-0.16626953 14.73302734 -0.27003906 14.02855469 -0.37695312 13.30273438 C-1.0046656 8.60571341 -0.87579081 4.66067698 0 0 Z " fill="#1F549D" transform="translate(6,21)"/>
<path d="M0 0 C-0.71027344 0.32613281 -1.42054687 0.65226562 -2.15234375 0.98828125 C-3.07144531 1.42527344 -3.99054687 1.86226562 -4.9375 2.3125 C-5.85402344 2.74175781 -6.77054688 3.17101562 -7.71484375 3.61328125 C-10.30969412 4.85078661 -10.30969412 4.85078661 -11 8 C-12.423125 8.61875 -12.423125 8.61875 -13.875 9.25 C-18.07304072 11.6009028 -18.48474096 13.53840394 -20 18 C-20.66 17.67 -21.32 17.34 -22 17 C-21.48776773 12.5948025 -20.78040375 9.4979273 -18 6 C-12.96052458 2.06397631 -6.45748384 -2.15249461 0 0 Z " fill="#228E97" transform="translate(36,27)"/>
<path d="M0 0 C0.66 0.33 1.32 0.66 2 1 C1.28739906 5.28379643 -0.06921736 9.25093853 -1.5625 13.3125 C-1.79646484 13.95767578 -2.03042969 14.60285156 -2.27148438 15.26757812 C-2.84447007 16.84621219 -3.42179464 18.42327026 -4 20 C-4.33 20 -4.66 20 -5 20 C-6.75969032 8.17947156 -6.75969032 8.17947156 -4.1875 4.25 C-3.465625 3.5075 -2.74375 2.765 -2 2 C-1.34 2 -0.68 2 0 2 C0 1.34 0 0.68 0 0 Z " fill="#99E2F2" transform="translate(48,25)"/>
<path d="M0 0 C2.31 0.33 4.62 0.66 7 1 C6.74500159 2.79398884 6.47046186 4.58520875 6.1875 6.375 C6.03667969 7.37273438 5.88585937 8.37046875 5.73046875 9.3984375 C5 12 5 12 2 14 C-0.29612756 4.58997722 -0.29612756 4.58997722 0 0 Z " fill="#619ECE" transform="translate(10,29)"/>
<path d="M0 0 C1 3 1 3 0 6 C-1.99145391 7.01691264 -3.99187074 8.01642648 -6 9 C-6.99 10.485 -6.99 10.485 -8 12 C-8.66 12 -9.32 12 -10 12 C-10 9.69 -10 7.38 -10 5 C-6.7 3.35 -3.4 1.7 0 0 Z " fill="#3294C5" transform="translate(17,16)"/>
<path d="M0 0 C0.33 1.32 0.66 2.64 1 4 C0.34 4 -0.32 4 -1 4 C-0.773125 4.5775 -0.54625 5.155 -0.3125 5.75 C0 8 0 8 -1.3125 10.25 C-1.869375 10.8275 -2.42625 11.405 -3 12 C-3.66 12 -4.32 12 -5 12 C-5 11.01 -5 10.02 -5 9 C-6.98 9.99 -6.98 9.99 -9 11 C-7.74155722 7.11980141 -6.57583797 5.0588158 -3 3 C-2.01 3 -1.02 3 0 3 C0 2.01 0 1.02 0 0 Z " fill="#68B0D9" transform="translate(25,32)"/>
<path d="M0 0 C0 1.32 0 2.64 0 4 C-0.66 3.67 -1.32 3.34 -2 3 C-1.67 2.34 -1.34 1.68 -1 1 C-3.97 1.66 -6.94 2.32 -10 3 C-10 3.99 -10 4.98 -10 6 C-11.8125 7.0625 -11.8125 7.0625 -14 8 C-14.99 7.67 -15.98 7.34 -17 7 C-16 4 -16 4 -13.41796875 2.578125 C-12.35191406 2.13984375 -11.28585938 1.7015625 -10.1875 1.25 C-9.12917969 0.80140625 -8.07085937 0.3528125 -6.98046875 -0.109375 C-4.02619256 -0.99217313 -2.8099231 -1.11580482 0 0 Z " fill="#80C4D9" transform="translate(34,12)"/>
<path d="M0 0 C1.98 0.99 1.98 0.99 4 2 C3.88557539 3.60495567 3.75805306 5.20898119 3.625 6.8125 C3.55539062 7.70582031 3.48578125 8.59914063 3.4140625 9.51953125 C3 12 3 12 1 15 C0 14 0 14 -0.09765625 10.83984375 C-0.08025391 8.90818359 -0.08025391 8.90818359 -0.0625 6.9375 C-0.05347656 5.64714844 -0.04445313 4.35679688 -0.03515625 3.02734375 C-0.02355469 2.02832031 -0.01195312 1.02929688 0 0 Z " fill="#167383" transform="translate(11,40)"/>
<path d="M0 0 C0 0.66 0 1.32 0 2 C-0.969375 2.433125 -1.93875 2.86625 -2.9375 3.3125 C-6.27731765 4.7014861 -6.27731765 4.7014861 -7 8 C-6.01 8.33 -5.02 8.66 -4 9 C-6.31 8.67 -8.62 8.34 -11 8 C-11 5.6875 -11 5.6875 -10 3 C-6.90959651 1.26122353 -3.56623085 0 0 0 Z " fill="#94C6EE" transform="translate(21,21)"/>
<path d="M0 0 C0 0.66 0 1.32 0 2 C-1.74294678 2.86846831 -3.49468663 3.71930627 -5.25 4.5625 C-6.22453125 5.03816406 -7.1990625 5.51382813 -8.203125 6.00390625 C-11.09856297 7.03510273 -12.19966161 7.11346788 -15 6 C-14.67 4.35 -14.34 2.7 -14 1 C-13.67 1.99 -13.34 2.98 -13 4 C-3.60869565 0 -3.60869565 0 0 0 Z " fill="#2D72A5" transform="translate(25,57)"/>
<path d="M0 0 C0 0.66 0 1.32 0 2 C-1.5725165 2.89429374 -3.15853741 3.76487427 -4.75 4.625 C-5.63171875 5.11226562 -6.5134375 5.59953125 -7.421875 6.1015625 C-10 7 -10 7 -12.328125 6.1484375 C-12.87984375 5.76945312 -13.4315625 5.39046875 -14 5 C-12.421924 4.15675328 -10.8372958 3.32576082 -9.25 2.5 C-8.36828125 2.0359375 -7.4865625 1.571875 -6.578125 1.09375 C-4 0 -4 0 0 0 Z " fill="#3793CF" transform="translate(37,51)"/>
<path d="M0 0 C-1.45654411 2.91308822 -3.35387648 3.05452316 -6.375 4.125 C-7.35210937 4.47820313 -8.32921875 4.83140625 -9.3359375 5.1953125 C-12 6 -12 6 -15 6 C-14 3 -14 3 -11.85546875 1.796875 C-10.97503906 1.45140625 -10.09460938 1.1059375 -9.1875 0.75 C-8.31480469 0.39421875 -7.44210938 0.0384375 -6.54296875 -0.328125 C-3.86358764 -1.03604136 -2.56787877 -0.9337741 0 0 Z " fill="#A0E5ED" transform="translate(41,27)"/>
<path d="M0 0 C1.32 0.66 2.64 1.32 4 2 C1.24638858 4.75361142 -1.99845364 5.47414027 -5.625 6.625 C-6.68460938 6.96917969 -6.68460938 6.96917969 -7.765625 7.3203125 C-9.50866945 7.88562421 -11.25411416 8.44352544 -13 9 C-13 8.01 -13 7.02 -13 6 C-11.39850114 5.32694982 -9.79368971 4.66177773 -8.1875 4 C-6.84751953 3.443125 -6.84751953 3.443125 -5.48046875 2.875 C-3 2 -3 2 0 2 C0 1.34 0 0.68 0 0 Z " fill="#B7E1F3" transform="translate(34,14)"/>
<path d="M0 0 C0 1.65 0 3.3 0 5 C-3.3 4.67 -6.6 4.34 -10 4 C-4.66666667 0 -4.66666667 0 0 0 Z " fill="#E5F9FA" transform="translate(38,17)"/>
<path d="M0 0 C-1.04800781 0.48919922 -1.04800781 0.48919922 -2.1171875 0.98828125 C-3.48230469 1.64376953 -3.48230469 1.64376953 -4.875 2.3125 C-5.77992187 2.74175781 -6.68484375 3.17101562 -7.6171875 3.61328125 C-10.26449476 4.9199388 -10.26449476 4.9199388 -12 8 C-12.66 6.35 -13.32 4.7 -14 3 C-12.23358317 2.3012307 -10.46167336 1.61633417 -8.6875 0.9375 C-7.20830078 0.36322266 -7.20830078 0.36322266 -5.69921875 -0.22265625 C-3 -1 -3 -1 0 0 Z " fill="#31A89F" transform="translate(36,27)"/>
<path d="M0 0 C0.33 1.32 0.66 2.64 1 4 C1.99 4.33 2.98 4.66 4 5 C4.66 4.67 5.32 4.34 6 4 C6.66 4.66 7.32 5.32 8 6 C4.55930376 8.29379749 3.27709699 9 -1 9 C-0.67 6.03 -0.34 3.06 0 0 Z " fill="#3FA0E1" transform="translate(13,52)"/>
<path d="M0 0 C-1.25125384 3.75376152 -2.5652404 4.24073289 -6 6 C-6.66 6 -7.32 6 -8 6 C-8.66 7.32 -9.32 8.64 -10 10 C-9.9375 6.6875 -9.9375 6.6875 -9 3 C-5.9396541 1.27507776 -3.5580523 0 0 0 Z " fill="#3AC4B8" transform="translate(26,27)"/>
<path d="M0 0 C0.33 0 0.66 0 1 0 C1.08167446 1.41569064 1.13949698 2.83276805 1.1875 4.25 C1.22230469 5.03890625 1.25710937 5.8278125 1.29296875 6.640625 C0.93578688 9.51712968 -0.11751718 10.84576769 -2 13 C-1.85966889 11.02043559 -1.7125877 9.04134859 -1.5625 7.0625 C-1.48128906 5.96035156 -1.40007813 4.85820313 -1.31640625 3.72265625 C-1 1 -1 1 0 0 Z " fill="#7DD5F0" transform="translate(42,38)"/>
<path d="M0 0 C0 2 0 2 -1.25 3.5625 C-3.17692483 5.14533111 -4.56795851 5.5806825 -7 6 C-7.33 4.35 -7.66 2.7 -8 1 C-5.1080406 0.03601353 -3.0005625 0 0 0 Z " fill="#68D6E0" transform="translate(48,25)"/>
<path d="M0 0 C0.33 0.99 0.66 1.98 1 3 C-3.455 4.485 -3.455 4.485 -8 6 C-7.67 5.01 -7.34 4.02 -7 3 C-3.4375 1.3125 -3.4375 1.3125 0 0 Z " fill="#529DBF" transform="translate(17,16)"/>
<path d="M0 0 C-0.66 0 -1.32 0 -2 0 C-2 0.66 -2 1.32 -2 2 C-5.08809695 3.76462683 -6.23312136 4 -10 4 C-10 3.34 -10 2.68 -10 2 C-3.375 -1.125 -3.375 -1.125 0 0 Z " fill="#BEDFEF" transform="translate(24,25)"/>
<path d="M0 0 C0.66 0.33 1.32 0.66 2 1 C0.59248779 1.86916887 -0.8264521 2.71985149 -2.25 3.5625 C-3.03890625 4.03816406 -3.8278125 4.51382812 -4.640625 5.00390625 C-7.30844625 6.13022151 -8.34501768 6.0169313 -11 5 C-9.730447 4.35165346 -8.45930294 3.70642185 -7.1875 3.0625 C-6.47980469 2.70285156 -5.77210937 2.34320312 -5.04296875 1.97265625 C-3 1 -3 1 0 0 Z " fill="#6DD4D0" transform="translate(28,24)"/>
<path d="M0 0 C0 0.66 0 1.32 0 2 C-4.38461538 5 -4.38461538 5 -7 5 C-6.625 3.0625 -6.625 3.0625 -6 1 C-4 0 -4 0 0 0 Z " fill="#419CD5" transform="translate(37,51)"/>
<path d="M0 0 C0.33 1.32 0.66 2.64 1 4 C0.34 4 -0.32 4 -1 4 C-1 4.99 -1 5.98 -1 7 C-2.65 6.67 -4.3 6.34 -6 6 C-4.6875 4.5 -4.6875 4.5 -3 3 C-2.01 3 -1.02 3 0 3 C0 2.01 0 1.02 0 0 Z " fill="#68BDE6" transform="translate(25,32)"/>
<path d="M0 0 C0.99 0.33 1.98 0.66 3 1 C3 2.65 3 4.3 3 6 C2.01 6.33 1.02 6.66 0 7 C0 4.69 0 2.38 0 0 Z " fill="#175A97" transform="translate(8,44)"/>
<path d="M0 0 C0.99 0 1.98 0 3 0 C3 2.31 3 4.62 3 7 C2.01 6.67 1.02 6.34 0 6 C0 4.02 0 2.04 0 0 Z " fill="#073D9B" transform="translate(8,38)"/>
<path d="M0 0 C0 1.32 0 2.64 0 4 C-1.32 4.33 -2.64 4.66 -4 5 C-4.33 3.68 -4.66 2.36 -5 1 C-3 0 -3 0 0 0 Z " fill="#41F5C9" transform="translate(45,21)"/>
<path d="M0 0 C0 0.66 0 1.32 0 2 C-2.31 2.66 -4.62 3.32 -7 4 C-7.33 3.34 -7.66 2.68 -8 2 C-4.91190305 0.23537317 -3.76687864 0 0 0 Z " fill="#2D80B8" transform="translate(25,57)"/>
<path d="M0 0 C-0.33 1.98 -0.66 3.96 -1 6 C-1.66 5.01 -2.32 4.02 -3 3 C-3.99 3.495 -3.99 3.495 -5 4 C-6.67654729 3.72057545 -8.34608154 3.39171753 -10 3 C-10 2.67 -10 2.34 -10 2 C-8.7090864 1.66376204 -7.41723903 1.33110751 -6.125 1 C-5.40570313 0.814375 -4.68640625 0.62875 -3.9453125 0.4375 C-2 0 -2 0 0 0 Z " fill="#68C5F5" transform="translate(41,44)"/>
<path d="M0 0 C0.66 0 1.32 0 2 0 C1.6875 1.9375 1.6875 1.9375 1 4 C0.01 4.33 -0.98 4.66 -2 5 C-2.33 5.99 -2.66 6.98 -3 8 C-3.33 7.34 -3.66 6.68 -4 6 C-2.7260411 3.96166576 -1.38938077 1.96147874 0 0 Z " fill="#86DAF6" transform="translate(46,27)"/>
<path d="M0 0 C1.98 0.99 1.98 0.99 4 2 C4 3.32 4 4.64 4 6 C2.68 6.33 1.36 6.66 0 7 C0 4.69 0 2.38 0 0 Z " fill="#217292" transform="translate(11,40)"/>
<path d="M0 0 C1.13643966 3.40931897 0.86747764 4.00335456 -0.4375 7.1875 C-0.86869141 8.26064453 -0.86869141 8.26064453 -1.30859375 9.35546875 C-1.53675781 9.89816406 -1.76492187 10.44085938 -2 11 C-2.33 11 -2.66 11 -3 11 C-2.88590407 9.54077307 -2.75834456 8.08259402 -2.625 6.625 C-2.55539063 5.81289063 -2.48578125 5.00078125 -2.4140625 4.1640625 C-2 2 -2 2 0 0 Z " fill="#96DFE7" transform="translate(46,34)"/>
<path d="M0 0 C0 0.66 0 1.32 0 2 C-2.31 2.66 -4.62 3.32 -7 4 C-6.67 3.01 -6.34 2.02 -6 1 C-4 0 -4 0 0 0 Z " fill="#1C6C8A" transform="translate(37,32)"/>
<path d="M0 0 C1.65 0 3.3 0 5 0 C4.34 1.65 3.68 3.3 3 5 C2.01 5 1.02 5 0 5 C0 3.35 0 1.7 0 0 Z " fill="#2787C2" transform="translate(7,23)"/>
</svg>
